<?xml version="1.0" encoding="UTF-8" standalone="no"?>
<!-- Created with Inkscape (http://www.inkscape.org/) -->

<svg
   xmlns:dc="http://purl.org/dc/elements/1.1/"
   xmlns:cc="http://creativecommons.org/ns#"
   xmlns:rdf="http://www.w3.org/1999/02/22-rdf-syntax-ns#"
   xmlns:svg="http://www.w3.org/2000/svg"
   xmlns="http://www.w3.org/2000/svg"
   xmlns:sodipodi="http://sodipodi.sourceforge.net/DTD/sodipodi-0.dtd"
   xmlns:inkscape="http://www.inkscape.org/namespaces/inkscape"
   width="423.75021"
   height="461.12671"
   id="svg2"
   version="1.1"
   inkscape:version="0.48.4 r9939"
   sodipodi:docname="woman icon.svg">
  <defs
     id="defs4" />
  <sodipodi:namedview
     id="base"
     pagecolor="#ffffff"
     bordercolor="#666666"
     borderopacity="1.0"
     inkscape:pageopacity="0.0"
     inkscape:pageshadow="2"
     inkscape:zoom="1.4"
     inkscape:cx="177.37121"
     inkscape:cy="175.27945"
     inkscape:document-units="px"
     inkscape:current-layer="layer1"
     showgrid="false"
     fit-margin-top="0"
     fit-margin-left="0"
     fit-margin-right="0"
     fit-margin-bottom="0"
     inkscape:window-width="1600"
     inkscape:window-height="838"
     inkscape:window-x="-8"
     inkscape:window-y="-8"
     inkscape:window-maximized="1" />
  <metadata
     id="metadata7">
    <rdf:RDF>
      <cc:Work
         rdf:about="">
        <dc:format>image/svg+xml</dc:format>
        <dc:type
           rdf:resource="http://purl.org/dc/dcmitype/StillImage" />
        <dc:title />
      </cc:Work>
    </rdf:RDF>
  </metadata>
  <g
     inkscape:label="Capa 1"
     inkscape:groupmode="layer"
     id="layer1"
     transform="translate(-120.96861,-92.467128)">
    <g
       id="g3885">
      <path
         sodipodi:nodetypes="sscccccccscccss"
         inkscape:connector-curvature="0"
         id="path4110-9-4-4"
         d="m 313.33227,124.93221 c -93.48558,0.93538 -182.39724,112.04146 -156.375,227.28125 5.75326,25.47834 48.20236,35.8266 90.59375,44.625 -0.005,0.0389 -0.0259,0.0867 -0.0312,0.125 0.0198,-0.0404 29.33702,6.48149 16.22494,2.90546 15.74067,2.64749 -3.38392,-0.75669 -2.79569,-0.63515 1.38765,0.74872 15.96329,3.0012 8.35311,2.72382 19.1633,3.91029 -4.10511,-2.29493 -9.18507,-2.93163 94.73221,-114.50556 105.0631,-29.74422 97.49302,81.7289 47.55262,-12.50035 132.11265,-18.41787 139.81599,-50.4789 16.26113,-67.67835 -15.38316,-133.73138 -64.25,-170.46875 -1.74694,-1.82044 -3.55672,-3.57667 -5.375,-5.28125 -0.95862,-2.41824 -2.08324,-4.93736 -3.375,-7.5 0.31936,-30.13762 -1.03154,-60.5822 -9.5,-70.6875 -30.59606,-36.50978 -66.4111,-51.75828 -101.59385,-51.40625 z"
         style="fill:#000000;fill-opacity:1;stroke:#be0000;stroke-width:13.87100029000000000;stroke-linecap:round;stroke-linejoin:round;stroke-miterlimit:4;stroke-opacity:1;stroke-dasharray:none;" />
      <path
         sodipodi:nodetypes="cccssc"
         inkscape:connector-curvature="0"
         id="path4110-9-4"
         d="m 311.16802,411.18169 c -10.47745,-10.45292 -46.76565,-41.30643 -46.63484,-75.53539 101.21641,-106.92752 145.18036,-51.64112 158.62583,-22.43809 -2.79448,-21.23369 7.7681,-118.31958 -8.74656,-138.02632 -111.8938,-133.521457 -293.79954,17.26552 -257.98398,175.87512 8.94094,39.59503 106.62185,42.71863 154.73955,60.12468 z"
         style="fill:#ff0000;fill-opacity:1;stroke:none;stroke-width:2.57100010000000000;stroke-miterlimit:4;stroke-opacity:1;stroke-dasharray:none" />
      <path
         sodipodi:nodetypes="cccssc"
         inkscape:connector-curvature="0"
         id="path4110-9-4-8"
         d="m 324.72092,396.0294 c -9.11018,-8.57929 -40.66294,-33.90248 -40.54919,-61.99608 88.0081,-87.76134 126.23494,-42.38473 137.92584,-18.41618 -2.42981,-17.42767 6.7544,-97.11144 -7.60518,-113.28585 -97.29213,-109.588454 -255.45995,14.17077 -224.31817,144.35045 7.77419,32.49784 92.70816,35.06155 134.5467,49.34766 z"
         style="fill:#ff8080;fill-opacity:1;stroke:none;stroke-width:2.57100010000000000;stroke-miterlimit:4;stroke-opacity:1;stroke-dasharray:none" />
      <path
         sodipodi:nodetypes="cccssc"
         inkscape:connector-curvature="0"
         id="path4110-9"
         d="m 351.93109,482.08235 c 9.81625,-9.20383 43.8144,-36.37046 43.69184,-66.50918 -94.82891,-94.15007 -136.01841,-45.47019 -148.61537,-19.75682 2.61813,-18.69634 -7.27788,-104.18082 8.19459,-121.53267 104.83247,-117.56613 275.25862,15.20235 241.70329,154.85867 -8.37671,34.86357 -99.89323,37.61391 -144.97435,52.94 z"
         style="fill:#ff0000;fill-opacity:1;stroke:none;stroke-width:2.57100010000000000;stroke-miterlimit:4;stroke-opacity:1;stroke-dasharray:none" />
      <path
         sodipodi:nodetypes="cccssc"
         inkscape:connector-curvature="0"
         id="path4110-9-8"
         d="m 358.46377,450.57764 c 7.79374,-8.29924 34.78703,-32.79579 34.68972,-59.97233 -75.29068,-84.89653 -107.99363,-41.00115 -117.99515,-17.81502 2.0787,-16.85877 -5.77837,-93.94141 6.5062,-109.58783 83.23314,-106.01114 218.54525,13.70819 191.90355,139.63839 -6.6508,31.437 -79.31156,33.91702 -115.10432,47.73679 z"
         style="fill:#ff5555;fill-opacity:1;stroke:none;stroke-width:2.57100010000000000;stroke-miterlimit:4;stroke-opacity:1;stroke-dasharray:none" />
      <path
         inkscape:connector-curvature="0"
         id="path4076"
         d="m 319.55557,250.23331 c -45.84557,-0.49863 -87.92208,42.29166 -69.53125,139.5 43.76877,121.44981 93.59319,168.47055 159.25,4.09375 15.54196,-90.26328 -39.36378,-143.04607 -89.71875,-143.59375 z"
         style="fill:#550000;fill-opacity:1;stroke:none;stroke-width:2.50000000000000000;stroke-linecap:round;stroke-linejoin:round;stroke-miterlimit:4;stroke-opacity:1;stroke-dasharray:none" />
      <path
         sodipodi:nodetypes="ssacsaas"
         inkscape:connector-curvature="0"
         id="path3777"
         d="m 341.51955,422.19492 c 4.89266,-0.90897 6.44924,2.00321 2.1307,2.58082 -5.55228,0.74262 -8.54509,3.96787 -13.14623,4.45626 -4.56118,0.48415 -8.52431,0.55618 -13.66903,-1.58338 -3.49136,-1.34723 -13.52445,-0.79307 -10.43777,-4.0225 1.8167,-1.90072 8.51465,3.88022 13.07446,4.67201 4.26406,0.74045 8.84434,1.2723 12.98363,0.009 3.4853,-1.064 5.76786,-5.49945 9.06424,-6.11185 z"
         style="fill:#000000;stroke:#000000;stroke-linecap:round;stroke-linejoin:round;stroke-opacity:1;stroke-width:1.9;stroke-miterlimit:4;stroke-dasharray:none" />
      <path
         sodipodi:nodetypes="ccc"
         inkscape:connector-curvature="0"
         id="path3779"
         d="m 345.83549,375.50608 c 10.5748,-11.52806 18.79515,-18.08499 36.6185,-10.45048 -6.92412,15.264 -18.75861,13.58737 -36.6185,10.45048 z"
         style="fill:#e6e6e6;stroke:#000000;stroke-width:2.6;stroke-linecap:round;stroke-linejoin:round;stroke-miterlimit:4;stroke-opacity:1;stroke-dasharray:none" />
      <path
         sodipodi:nodetypes="ccc"
         inkscape:connector-curvature="0"
         id="path3781"
         d="m 306.56348,377.33608 c -12.58654,0.84615 -21.29402,8.11831 -37.28211,-5.4501 16.40747,-11.22403 27.0562,-5.89138 37.28211,5.4501 z"
         style="fill:#e6e6e6;stroke:#000000;stroke-width:2.6;stroke-linecap:round;stroke-linejoin:round;stroke-miterlimit:4;stroke-opacity:1;stroke-dasharray:none" />
      <path
         inkscape:connector-curvature="0"
         id="path3779-1"
         d="m 372.21361,361.91106 c 0.17152,0.32195 0.42091,0.58919 0.54591,0.93584 0.33803,0.93734 0.49226,1.96815 0.43724,3.02677 -0.055,1.05863 -0.31367,2.03669 -0.74705,2.93393 -0.43337,0.89725 -1.0236,1.69198 -1.74932,2.34988 -0.72572,0.65789 -1.58814,1.18691 -2.52019,1.52749 -0.93205,0.34058 -1.94318,0.49355 -2.99556,0.43885 -1.0524,-0.0547 -2.04222,-0.31167 -2.93393,-0.74704 -0.89173,-0.43537 -1.69465,-1.05095 -2.34825,-1.78054 -0.6536,-0.72959 -1.15827,-1.58122 -1.49629,-2.51856 -0.33803,-0.93734 -0.49387,-1.93694 -0.43885,-2.99556 0.006,-0.12094 0.0685,-0.22077 0.0803,-0.34005 4.06425,-2.43673 8.58197,-3.51605 14.16604,-2.83101 z"
         style="fill:#000000;stroke:#000000;stroke-width:1px;stroke-linecap:butt;stroke-linejoin:miter;stroke-opacity:1" />
      <path
         inkscape:connector-curvature="0"
         id="path3781-4"
         d="m 295.42279,368.32486 c 0.26842,0.80251 0.43466,1.65817 0.36716,2.54018 -0.074,0.96742 -0.36931,1.85253 -0.82432,2.66089 -0.45498,0.80835 -1.06851,1.52022 -1.81589,2.10071 -0.74738,0.5805 -1.63221,1.03176 -2.58338,1.3156 -0.95119,0.28386 -1.97447,0.42395 -3.0409,0.34234 -1.06643,-0.0816 -2.08585,-0.37804 -2.98277,-0.80334 -0.89693,-0.42528 -1.67337,-1.00367 -2.32371,-1.69114 -0.65035,-0.68747 -1.14841,-1.4844 -1.47508,-2.35257 -0.32671,-0.86819 -0.48385,-1.78792 -0.40981,-2.75534 0.074,-0.9674 0.37161,-1.8826 0.82662,-2.69095 0.0872,-0.15507 0.25609,-0.24883 0.35545,-0.39652 5.19678,-1.35384 9.71617,-0.52624 13.90663,1.73014 z"
         style="fill:#000000;stroke:#000000;stroke-width:0.95429461999999998px;stroke-linecap:butt;stroke-linejoin:miter;stroke-opacity:1" />
      <path
         sodipodi:nodetypes="cccc"
         inkscape:connector-curvature="0"
         id="path3835-2"
         d="m 361.60872,450.22077 c -15.86934,4.99226 -24.07308,-6.14782 -34.03198,3.07883 -11.13599,-9.11719 -17.90054,2.5648 -31.5911,-2.1014 24.92459,32.043 43.33583,23.94284 65.62308,-0.97743 z"
         style="fill:#ff0000;fill-opacity:1;stroke:none" />
      <path
         sodipodi:nodetypes="ccccccc"
         inkscape:connector-curvature="0"
         id="path3835-2-5"
         d="m 361.69228,450.41605 c -21.42111,25.51694 -31.12341,30.72208 -64.86771,1.93071 21.53883,8.93072 42.34822,11.76961 63.28115,-1.67603 -3.12389,-0.0958 0.33636,-0.16489 1.58656,-0.25468 z m -65.46721,1.16398 c -0.0555,-0.071 -0.11708,-0.12982 -0.17264,-0.20126 3.72758,0.13961 3.25453,0.55528 0.17264,0.20126 z"
         style="fill:#ff0000;fill-opacity:1;stroke:none" />
      <path
         sodipodi:nodetypes="ccc"
         inkscape:connector-curvature="0"
         id="path3959"
         d="m 347.53331,409.48471 c 4.66306,8.97518 6.30769,16.80056 -5.34743,19.55968 12.17022,-1.49286 12.49639,-8.71752 5.34743,-19.55968 z"
         style="fill:#000000;stroke:#000000;stroke-linecap:round;stroke-linejoin:round;stroke-opacity:1;stroke-width:2.00000005;stroke-miterlimit:4;stroke-dasharray:none" />
      <path
         sodipodi:nodetypes="ccc"
         inkscape:connector-curvature="0"
         id="path3959-5"
         d="m 306.72719,409.1825 c -5.97451,8.16108 -8.79079,15.64506 2.30874,20.14562 -11.80132,-3.32744 -11.02431,-10.51759 -2.30874,-20.14562 z"
         style="fill:#000000;stroke:#000000;stroke-linecap:round;stroke-linejoin:round;stroke-opacity:1;stroke-width:1.7;stroke-miterlimit:4;stroke-dasharray:none" />
      <path
         sodipodi:nodetypes="ccsc"
         inkscape:connector-curvature="0"
         id="path4110-5-8"
         d="M 393.04729,244.11986 C 246.71659,230.34035 245.15445,302.62744 252.4833,334.19394 241.609,315.96606 224.26462,276.28158 240.19445,258.11543 408.23985,66.478832 482.63561,376.52725 393.04729,244.11986 z"
         style="fill:#ff0000;fill-opacity:1;stroke:#ff0000;stroke-width:2.57100010000000000;stroke-miterlimit:4;stroke-opacity:1;stroke-dasharray:none" />
      <path
         sodipodi:nodetypes="ccsc"
         inkscape:connector-curvature="0"
         id="path4110-5"
         d="M 396.76474,268.22971 C 254.87107,255.66535 249.69647,315.22092 256.8704,343.32796 246.28835,327.08402 234.77978,344.90569 249.2981,304.5637 335.99562,63.657646 483.90678,386.24748 396.76474,268.22971 z"
         style="fill:#ff5555;stroke:none" />
      <path
         sodipodi:nodetypes="cccccc"
         inkscape:connector-curvature="0"
         id="path4110"
         d="m 407.61476,399.48122 c 1.89292,-16.06508 10.83826,-68.58932 -11.01908,-96.5147 -150.40074,-14.99325 -152.59846,61.76927 -144.99444,95.30982 -25.29846,-12.51546 -50.26277,-37.59295 -11.59293,-85.99491 86.92146,-121.92015 130.97577,-56.00525 191.96967,-40.9182 20.38565,49.66021 3.77411,79.3868 -24.36322,128.11799 z"
         style="fill:#ff0000;fill-opacity:1;stroke:#ff0000;stroke-width:2.57410979;stroke-linecap:round;stroke-linejoin:round;stroke-miterlimit:4;stroke-opacity:1;stroke-dasharray:none" />
      <path
         sodipodi:nodetypes="ccc"
         inkscape:connector-curvature="0"
         d="m 258.95022,372.29132 c 11.12891,-25.02332 56.71614,-26.52133 53.85427,-1.57873 3.66039,-33.74597 -47.16427,-31.86064 -53.85427,1.57873 z"
         style="fill:#000000;stroke:none"
         id="path3979-1-1" />
      <path
         sodipodi:nodetypes="ccc"
         inkscape:connector-curvature="0"
         d="m 395.79478,367.41887 c -13.78243,-23.66566 -59.26245,-20.20057 -53.70688,4.28328 -7.30607,-33.14829 43.42245,-36.79756 53.70688,-4.28328 z"
         style="fill:#000000;stroke:none"
         id="path3979-1-1-7" />
      <path
         sodipodi:nodetypes="ccc"
         inkscape:connector-curvature="0"
         id="path3835-2-5-4"
         d="m 362.12331,450.88648 c -24.57789,15.2517 -43.74379,14.13984 -64.86771,1.21642 28.01018,14.93242 48.66488,8.10496 64.86771,-1.21642 z"
         style="fill:#000000;fill-opacity:1;stroke:#000000;stroke-linecap:round;stroke-linejoin:round;stroke-opacity:1" />
      <path
         transform="matrix(0.21799865,0,0,0.21799865,247.94526,310.0993)"
         d="m 165.71429,281.93027 a 0.71428573,0.8035714 0 1 1 -1.42858,0 0.71428573,0.8035714 0 1 1 1.42858,0 z"
         sodipodi:ry="0.8035714"
         sodipodi:rx="0.71428573"
         sodipodi:cy="281.93027"
         sodipodi:cx="165"
         id="path3059"
         style="fill:#ffffff;fill-opacity:1;stroke:#ffffff;stroke-width:13.87100029000000000;stroke-linecap:round;stroke-linejoin:round;stroke-miterlimit:4;stroke-opacity:1;stroke-dasharray:none;stroke-dashoffset:0"
         sodipodi:type="arc" />
      <path
         transform="matrix(0.21799865,0,0,0.21799865,326.24883,306.95484)"
         d="m 165.71429,281.93027 a 0.71428573,0.8035714 0 1 1 -1.42858,0 0.71428573,0.8035714 0 1 1 1.42858,0 z"
         sodipodi:ry="0.8035714"
         sodipodi:rx="0.71428573"
         sodipodi:cy="281.93027"
         sodipodi:cx="165"
         id="path3059-1"
         style="fill:#ffffff;fill-opacity:1;stroke:#ffffff;stroke-width:13.87100029;stroke-linecap:round;stroke-linejoin:round;stroke-miterlimit:4;stroke-opacity:1;stroke-dasharray:none;stroke-dashoffset:0"
         sodipodi:type="arc" />
    </g>
  </g>
</svg>
