<?xml version="1.0" encoding="UTF-8" standalone="no"?>
<!-- Created with Inkscape (http://www.inkscape.org/) -->
<svg xmlns:dc="http://purl.org/dc/elements/1.1/" xmlns:cc="http://creativecommons.org/ns#" xmlns:rdf="http://www.w3.org/1999/02/22-rdf-syntax-ns#" xmlns:svg="http://www.w3.org/2000/svg" xmlns="http://www.w3.org/2000/svg" xmlns:sodipodi="http://sodipodi.sourceforge.net/DTD/sodipodi-0.dtd" xmlns:inkscape="http://www.inkscape.org/namespaces/inkscape" version="1.1" width="460.39999" height="404.33087" id="svg2816" xml:space="preserve" inkscape:version="0.48.4 r9939" sodipodi:docname="AJAX.svg"><metadata id="metadata81"><rdf:RDF><cc:Work rdf:about=""><dc:format>image/svg+xml</dc:format><dc:type rdf:resource="http://purl.org/dc/dcmitype/StillImage"/><dc:title/></cc:Work></rdf:RDF></metadata><sodipodi:namedview pagecolor="#ffffff" bordercolor="#666666" borderopacity="1" objecttolerance="10" gridtolerance="10" guidetolerance="10" inkscape:pageopacity="0" inkscape:pageshadow="2" inkscape:window-width="1280" inkscape:window-height="1001" id="namedview79" showgrid="false" fit-margin-top="0.2" fit-margin-left="0.2" fit-margin-right="0.2" fit-margin-bottom="0.2" inkscape:zoom="1.1087424" inkscape:cx="191.32938" inkscape:cy="161.03035" inkscape:window-x="-8" inkscape:window-y="-8" inkscape:window-maximized="1" inkscape:current-layer="svg2816"/><defs id="defs2820"><clipPath id="clipPath2832"><path d="m -0.24,595.138 317.48,0 0,-595.276 -317.48,0 0,595.276 z" id="path2834" inkscape:connector-curvature="0"/></clipPath><clipPath id="clipPath2840"><path d="m 0.03,595.32 317.46,0 0,-595.32 -317.46,0 0,595.32 z" id="path2842" inkscape:connector-curvature="0"/></clipPath><clipPath id="clipPath2858"><path d="m -0.24,595.138 317.48,0 0,-595.276 -317.48,0 0,595.276 z" id="path2860" inkscape:connector-curvature="0"/></clipPath><clipPath id="clipPath2864"><path d="m 0.03,595.32 317.46,0 0,-595.32 -317.46,0 0,595.32 z" id="path2866" inkscape:connector-curvature="0"/></clipPath><clipPath id="clipPath3306"><path d="m 199.238,472.977 0,-29.74 29.744,0 0,29.74" id="path3308" inkscape:connector-curvature="0"/></clipPath><clipPath id="clipPath3322"><path d="m -0.24,595.138 317.48,0 0,-595.276 -317.48,0 0,595.276 z" id="path3324" inkscape:connector-curvature="0"/></clipPath><clipPath id="clipPath3330"><path d="m 0.03,595.32 317.46,0 0,-595.32 -317.46,0 0,595.32 z" id="path3332" inkscape:connector-curvature="0"/></clipPath><clipPath id="clipPath3344"><path d="m 88.233,387.221 0,-28.335 32.08,0 0,28.335" id="path3346" inkscape:connector-curvature="0"/></clipPath><clipPath id="clipPath3462"><path d="m -0.24,595.138 317.48,0 0,-595.276 -317.48,0 0,595.276 z" id="path3464" inkscape:connector-curvature="0"/></clipPath><clipPath id="clipPath3470"><path d="m 0.03,595.32 317.46,0 0,-595.32 -317.46,0 0,595.32 z" id="path3472" inkscape:connector-curvature="0"/></clipPath><clipPath id="clipPath3490"><path d="m -0.24,595.138 317.48,0 0,-595.276 -317.48,0 0,595.276 z" id="path3492" inkscape:connector-curvature="0"/></clipPath><clipPath id="clipPath3496"><path d="m 0.03,595.32 317.46,0 0,-595.32 -317.46,0 0,595.32 z" id="path3498" inkscape:connector-curvature="0"/></clipPath><clipPath id="clipPath3520"><path d="m 254.788,326.215 0,-28.309 28.326,0 0,28.309" id="path3522" inkscape:connector-curvature="0"/></clipPath><clipPath id="clipPath3544"><path d="m 145.049,326.142 0,-28.333 28.342,0 0,28.333" id="path3546" inkscape:connector-curvature="0"/></clipPath><clipPath id="clipPath3682"><path d="m -0.24,595.138 317.48,0 0,-595.276 -317.48,0 0,595.276 z" id="path3684" inkscape:connector-curvature="0"/></clipPath><clipPath id="clipPath3690"><path d="m 0.03,595.32 317.46,0 0,-595.32 -317.46,0 0,595.32 z" id="path3692" inkscape:connector-curvature="0"/></clipPath><clipPath id="clipPath3980"><path d="m -0.24,595.138 317.48,0 0,-595.276 -317.48,0 0,595.276 z" id="path3982" inkscape:connector-curvature="0"/></clipPath><clipPath id="clipPath3988"><path d="m 0.03,595.32 317.46,0 0,-595.32 -317.46,0 0,595.32 z" id="path3990" inkscape:connector-curvature="0"/></clipPath><clipPath id="clipPath4010"><path d="m -0.24,595.138 317.48,0 0,-595.276 -317.48,0 0,595.276 z" id="path4012" inkscape:connector-curvature="0"/></clipPath><clipPath id="clipPath4016"><path d="m 0.03,595.32 317.46,0 0,-595.32 -317.46,0 0,595.32 z" id="path4018" inkscape:connector-curvature="0"/></clipPath><clipPath id="clipPath4062"><path d="m 200.163,177.773 0,-28.284 28.283,0 0,28.284" id="path4064" inkscape:connector-curvature="0"/></clipPath><clipPath id="clipPath4090"><path d="m 34.886,177.515 0,-51.632 30.367,0 0,51.632" id="path4092" inkscape:connector-curvature="0"/></clipPath><clipPath id="clipPath4106"><path d="m 34.886,177.515 0,-51.632 30.367,0 0,51.632" id="path4108" inkscape:connector-curvature="0"/></clipPath><clipPath id="clipPath4272"><path d="m 34.886,177.515 0,-51.632 30.367,0 0,51.632" id="path4274" inkscape:connector-curvature="0"/></clipPath><clipPath id="clipPath4304"><path d="m 254.653,176.442 0,-48.167 28.317,0 0,48.167" id="path4306" inkscape:connector-curvature="0"/></clipPath><clipPath id="clipPath4310"><path d="m 253.565,177.983 31.181,0 0,-49.183 -31.181,0 0,49.183 z" id="path4312" inkscape:connector-curvature="0"/></clipPath><clipPath id="clipPath4316"><path d="m -0.24,595.138 317.48,0 0,-595.276 -317.48,0 0,595.276 z" id="path4318" inkscape:connector-curvature="0"/></clipPath><clipPath id="clipPath4322"><path d="m 0.03,595.32 317.46,0 0,-595.32 -317.46,0 0,595.32 z" id="path4324" inkscape:connector-curvature="0"/></clipPath><clipPath id="clipPath4456"><path d="m -0.24,595.138 317.48,0 0,-595.276 -317.48,0 0,595.276 z" id="path4458" inkscape:connector-curvature="0"/></clipPath><clipPath id="clipPath4464"><path d="m 0.03,595.32 317.46,0 0,-595.32 -317.46,0 0,595.32 z" id="path4466" inkscape:connector-curvature="0"/></clipPath></defs><path style="fill:#db0000;fill-opacity:1;fill-rule:nonzero;stroke:none" d="m 411.54078,404.13088 c 19.50971,0 35.31901,-8.04095 43.34304,-22.06213 8.00126,-14.02118 6.93797,-31.71567 -2.9687,-48.53047 L 271.19934,26.48082 C 261.37616,9.76473 246.42266,0.2 230.20001,0.2 213.97735,0.2 199.02386,9.76473 189.20069,26.48082 L 8.4848913,333.53828 c -9.90667,16.8148 -10.96996,34.50929 -2.9687,48.53047 8.0240297,14.02118 23.8333297,22.06213 43.3430397,22.06213 z" id="path4845" inkscape:connector-curvature="0" sodipodi:nodetypes="scccscccss"/><path sodipodi:nodetypes="cccc" inkscape:connector-curvature="0" id="path3060" d="M 44.203061,359.94411 C 44.514301,358.91929 229.42569,45.03204 230.20001,44.38677 c 0.77432,0.64527 185.6857,314.53252 185.99694,315.55734 -0.52,0.1251 -371.473879,0.1251 -371.993889,0 z" style="fill:#ffffff;fill-opacity:1;fill-rule:nonzero;stroke:none"/><path inkscape:connector-curvature="0" style="fill:#000000;stroke:none" id="path3062" d="m 365.19975,348.94598 c -3.79587,0 -7.59255,0 -11.38925,0 -3.39655,-10.74098 -6.7619,-21.5173 -10.15846,-32.26158 -2.23726,0 -4.4737,0 -6.71095,0 0,10.75414 0,21.50745 0,32.26158 -3.59129,0 -7.18258,0 -10.77386,0 0,-24.99684 0,-49.99287 0,-74.9889 -0.006,-0.087 -0.0107,-0.175 0.0617,-0.18486 3.63729,0 7.19571,0 10.77385,0 3.62168,0 7.2902,-0.31632 10.5898,0.12242 6.03149,0.80518 10.24063,4.34307 12.74491,8.74283 1.25133,2.19864 2.2422,5.07183 2.27753,8.49633 0.0354,3.38094 0.27441,7.17024 -0.18487,10.52735 -0.84379,6.20074 -4.41536,10.05577 -8.61957,12.80654 3.8353,11.45743 7.60323,22.97567 11.38924,34.47829 z M 350.0549,304.92544 c 2.23973,-2.44759 1.84699,-7.7651 1.84699,-12.31274 0,-3.68906 -0.84873,-6.36998 -3.26345,-7.81932 -2.76474,-1.66213 -7.16697,-0.7411 -11.63573,-0.98512 -0.0715,0.0107 -0.0666,0.0969 -0.0616,0.18486 0,7.73716 0,15.47433 0,23.21066 5.72091,-0.041 10.4255,0.66386 13.11381,-2.27834 z"/><path inkscape:connector-curvature="0" style="fill:#000000;stroke:none" id="path3064" d="m 316.3785,338.11052 c 0,3.61181 0,7.22364 0,10.83546 -10.71305,0 -21.42528,0 -32.13833,0 0,-24.99684 0,-49.99287 0,-74.9889 -0.006,-0.087 -0.009,-0.175 0.0616,-0.18486 10.6925,0 21.3842,0 32.0767,0 0,3.30372 0,6.60826 0,9.91199 -7.14148,0 -14.28378,0 -21.42528,0 -0.14378,7.24335 -0.0206,14.75539 -0.0616,22.10146 6.17772,0.14379 12.62085,0.0205 18.90127,0.0616 0,3.38588 0,6.77258 0,10.15846 -6.30016,0 -12.60112,0 -18.90127,0 0,7.36743 0,14.73569 0,22.1023 7.16202,0.002 14.32405,0.002 21.4869,0.002 z"/><path inkscape:connector-curvature="0" style="fill:#000000;stroke:none" id="path3066" d="m 265.09323,345.06796 c -1.42387,1.62351 -3.44751,3.36533 -6.09557,3.82132 -1.43618,0.24978 -3.04492,0.24157 -4.61749,0.24157 -1.58572,0 -3.18293,-0.0944 -4.67828,-0.24157 -5.14907,-0.502 -8.57111,-2.78609 -10.40494,-6.65426 -0.62115,-1.3113 -1.22339,-2.4213 -1.66213,-4.18696 -0.21609,-0.86433 -0.008,-52.02637 0.73863,-55.10168 0.63839,-2.62916 1.55779,-4.71524 3.01697,-6.46447 1.57996,-1.89383 3.40889,-2.87566 5.78747,-3.7556 2.39008,-0.88241 5.20165,-0.76739 8.55713,-0.92349 2.74502,-0.12818 6.76026,0.10024 9.35903,0.55458 3.2577,0.56938 9.11665,2.12388 10.46574,10.46574 0.22594,1.39593 0.3188,2.87567 0.36973,4.49507 0.0485,1.56189 0.1635,3.20347 0.0608,4.74072 -0.0714,1.0796 -0.31304,1.99078 -1.2924,2.27752 -0.21279,0.0312 -7.40934,0.1331 -8.87593,-0.35165 -0.50282,-0.16679 0.10518,-6.91883 -1.28335,-8.45279 -0.23581,-0.26127 -1.77223,-1.20285 -2.58562,-1.35402 -0.64333,-0.11832 -7.06509,-0.0173 -8.80362,0.12324 -2.40405,0.19472 -4.03003,1.67527 -4.61749,3.57075 -0.21855,0.70248 -0.51598,2.97096 -0.55459,3.32508 -0.14871,1.33348 -0.20294,35.51107 -0.24648,36.1396 -0.0822,1.23406 -0.1331,3.16979 0.0617,4.371 0.18486,1.1289 1.43126,2.84771 2.40076,3.4475 0.7107,0.4412 1.81906,0.51516 2.95618,0.61539 3.03176,0.26702 7.27951,0.47161 9.41983,-0.73864 0.3155,-0.17664 0.73616,-0.48229 0.9235,-0.80025 0.0944,-0.15858 0.66139,-1.36224 0.7378,-1.60051 0.32865,-1.0188 0.38041,-2.56508 0.49297,-4.06371 0.14132,-1.83631 0.27442,-10.67854 0.16432,-13.38249 -2.34981,-0.12817 -5.34871,-0.002 -8.16768,-0.10025 -0.10763,-0.25881 -0.30482,-0.433 -0.49297,-0.61539 0.12571,-1.33185 -0.13063,-10.33018 0.11092,-10.8289 1.38524,0.11338 19.6966,0.12077 19.6966,0.12077 0,0 0.0797,1.93656 0.0797,2.82637 0,1.29239 -0.21034,10.56351 -0.24648,12.37518 -0.15447,7.74784 -0.24649,15.76435 -0.24649,23.64118 0,2.26026 -0.68769,6.34205 -0.68769,6.34205 h -9.6614 c -8.1e-4,0 -0.20292,-2.59877 -0.1791,-3.87802 z"/><path inkscape:connector-curvature="0" style="fill:#000000;stroke:none" id="path3068" d="m 231.16952,273.77305 c 0,25.0601 0,50.11529 0,75.17293 -3.3448,0 -6.69042,0 -10.03522,0 -5.6256,-15.1432 -11.13125,-30.40637 -16.8078,-45.4978 0,15.16538 0,30.33159 0,45.4978 -3.57074,0 -7.14148,0 -10.71306,0 0,-24.99684 0,-49.99287 0,-74.9889 -0.006,-0.087 -0.0107,-0.175 0.0617,-0.18486 3.36615,0 6.7315,0 10.09683,0 5.55659,15.11198 11.11318,30.21823 16.62295,45.37457 0.14377,-15.00189 0.0206,-30.26998 0.0616,-45.37457 3.57074,8.3e-4 7.14148,8.3e-4 10.71304,8.3e-4 z"/><path inkscape:connector-curvature="0" style="fill:#000000;stroke:none" id="path3070" d="m 188.07247,348.88436 c -3.73506,0.14379 -7.73716,0.0205 -11.57411,0.0617 -0.94896,-5.43335 -2.00638,-10.75658 -3.01697,-16.13078 -4.63803,0 -9.27604,0 -13.91407,0 -1.08288,5.32078 -2.04417,10.76153 -3.07859,16.13078 -3.79669,0 -7.59338,0 -11.39006,0 5.57959,-25.08065 11.15097,-50.16952 16.80779,-75.17293 3.11968,0 6.23935,0 9.35821,0 5.60014,25.03956 11.15919,50.12023 16.8078,75.11131 z M 161.47512,322.7808 c 3.36615,0 6.7315,0 10.09683,0 -1.72868,-9.046 -3.29632,-18.2522 -5.10962,-27.21274 -1.60545,9.1265 -3.37849,18.08705 -4.98721,27.21274 z"/><path inkscape:connector-curvature="0" style="fill:#000000;stroke:none" id="path3072" d="m 139.92741,293.35134 c 0,11.67187 0,24.43404 0,36.13877 0,6.1572 -1.46248,10.23816 -4.43344,13.6068 -2.78035,3.15582 -6.59018,5.55411 -12.25194,5.84907 -5.95671,0.31304 -11.59546,-0.23087 -18.0394,0 0,-24.99684 0,-49.99287 0,-74.9889 -0.006,-0.087 -0.0104,-0.175 0.0616,-0.18486 6.48007,0.20212 12.10568,-0.27196 18.10101,0 5.49004,0.24895 9.39928,2.86744 12.1287,5.90989 1.46248,1.63091 2.69654,3.50912 3.4475,5.6026 0.81339,2.26683 0.98594,4.75961 0.98594,8.06663 z m -10.58982,1.5397 c 0,-2.01132 0.15119,-4.00702 -0.24648,-5.54098 -0.66221,-2.55194 -2.76802,-4.42276 -5.23369,-5.11045 -2.1855,-0.61046 -5.08416,-0.17172 -7.94256,-0.30811 -0.0714,0.0107 -0.0666,0.0978 -0.0617,0.1857 0,18.26451 0,36.52986 0,54.79356 2.88634,-0.0558 6.01588,0.20788 8.24985,-0.3689 2.29561,-0.59239 3.72521,-1.90861 4.55586,-4.06289 0.98758,-2.55769 0.67701,-7.0774 0.67701,-10.83548 0.002,-9.79037 0.002,-19.11818 0.002,-28.75245 z"/></svg>