<?xml version="1.0" encoding="UTF-8" standalone="no"?>
<!-- Created with Inkscape (http://www.inkscape.org/) -->
<svg
   xmlns:dc="http://purl.org/dc/elements/1.1/"
   xmlns:cc="http://creativecommons.org/ns#"
   xmlns:rdf="http://www.w3.org/1999/02/22-rdf-syntax-ns#"
   xmlns:svg="http://www.w3.org/2000/svg"
   xmlns="http://www.w3.org/2000/svg"
   xmlns:sodipodi="http://sodipodi.sourceforge.net/DTD/sodipodi-0.dtd"
   xmlns:inkscape="http://www.inkscape.org/namespaces/inkscape"
   version="1.0"
   width="60"
   height="60"
   viewBox="0 0 128 128"
   id="svg548"
   sodipodi:version="0.32"
   inkscape:version="0.46dev+devel"
   sodipodi:docname="Pillar_ionic.svg"
   inkscape:output_extension="org.inkscape.output.svg.inkscape">
  <metadata
     id="metadata22">
    <rdf:RDF>
      <cc:Work
         rdf:about="">
        <dc:format>image/svg+xml</dc:format>
        <dc:type
           rdf:resource="http://purl.org/dc/dcmitype/StillImage" />
      </cc:Work>
    </rdf:RDF>
  </metadata>
  <sodipodi:namedview
     inkscape:window-height="1003"
     inkscape:window-width="1280"
     inkscape:pageshadow="2"
     inkscape:pageopacity="0.0"
     guidetolerance="10.0"
     gridtolerance="10.0"
     objecttolerance="10.0"
     borderopacity="1.0"
     bordercolor="#666666"
     pagecolor="#ffffff"
     id="base"
     showgrid="false"
     inkscape:zoom="3.85"
     inkscape:cx="30.167817"
     inkscape:cy="33.049498"
     inkscape:window-x="-4"
     inkscape:window-y="-4"
     inkscape:current-layer="svg548"
     inkscape:showpageshadow="false" />
  <defs
     id="defs601" />
  <g
     style="font-size:12px;stroke:#000000"
     id="Layer_1" />
  <rect
     id="rect2188"
     style="fill:#eeeeee;fill-opacity:1;stroke:#000000;stroke-width:1.06666672;stroke-miterlimit:4;stroke-dasharray:none;stroke-dashoffset:0;stroke-opacity:1"
     y="35.815125"
     x="55.258766"
     ry="8.3873367"
     height="89.751602"
     width="16.774673"
     rx="8.3873367" />
  <rect
     id="rect3163"
     style="fill:#eeeeee;fill-opacity:1;stroke:#000000;stroke-width:1.06666672;stroke-miterlimit:4;stroke-dasharray:none;stroke-dashoffset:0;stroke-opacity:1"
     transform="matrix(0,-1,1,0,0,0)"
     y="2.9074025"
     x="-17.434565"
     ry="7.2374811"
     height="122.18569"
     width="15.032245" />
  <rect
     id="rect3167"
     style="fill:#eeeeee;fill-opacity:1;stroke:#000000;stroke-width:1.06666672;stroke-miterlimit:4;stroke-dasharray:none;stroke-dashoffset:0;stroke-opacity:1"
     y="35.808773"
     x="74.101044"
     ry="6.2828135"
     height="89.764305"
     width="12.565627"
     rx="6.2828135" />
  <rect
     id="rect3171"
     style="fill:#eeeeee;fill-opacity:1;stroke:#000000;stroke-width:1.06666672;stroke-miterlimit:4;stroke-dasharray:none;stroke-dashoffset:0;stroke-opacity:1"
     y="35.801205"
     x="88.734268"
     ry="5.3179469"
     height="89.779442"
     width="8.3438873"
     rx="4.1719437" />
  <rect
     id="rect3173"
     style="fill:#eeeeee;fill-opacity:1;stroke:#000000;stroke-width:1.06666672;stroke-miterlimit:4;stroke-dasharray:none;stroke-dashoffset:0;stroke-opacity:1"
     y="35.791302"
     x="99.14576"
     ry="5.3191204"
     height="89.799248"
     width="4.1210012"
     rx="2.0605006" />
  <rect
     id="rect3175"
     style="fill:#eeeeee;fill-opacity:1;stroke:#000000;stroke-width:1.06666672;stroke-miterlimit:4;stroke-dasharray:none;stroke-dashoffset:0;stroke-opacity:1"
     y="35.784176"
     x="105.33436"
     ry="5.3199649"
     height="89.813499"
     width="1.9943373"
     rx="0.99716866" />
  <rect
     id="rect3205"
     style="fill:#eeeeee;fill-opacity:1;stroke:#000000;stroke-width:1.06666672;stroke-miterlimit:4;stroke-dasharray:none;stroke-dashoffset:0;stroke-opacity:1"
     transform="scale(-1,1)"
     y="35.808777"
     x="-53.191166"
     ry="6.2828135"
     height="89.764305"
     width="12.565627"
     rx="6.2828135" />
  <rect
     id="rect3207"
     style="fill:#eeeeee;fill-opacity:1;stroke:#000000;stroke-width:1.06666672;stroke-miterlimit:4;stroke-dasharray:none;stroke-dashoffset:0;stroke-opacity:1"
     transform="scale(-1,1)"
     y="35.801208"
     x="-38.557938"
     ry="5.3179469"
     height="89.779442"
     width="8.3438873"
     rx="4.1719437" />
  <rect
     id="rect3209"
     style="fill:#eeeeee;fill-opacity:1;stroke:#000000;stroke-width:1.06666672;stroke-miterlimit:4;stroke-dasharray:none;stroke-dashoffset:0;stroke-opacity:1"
     transform="scale(-1,1)"
     y="35.791306"
     x="-28.14645"
     ry="5.3191204"
     height="89.799248"
     width="4.1210012" />
  <rect
     id="rect3211"
     style="fill:#eeeeee;fill-opacity:1;stroke:#000000;stroke-width:1.06666672;stroke-miterlimit:4;stroke-dasharray:none;stroke-dashoffset:0;stroke-opacity:1"
     transform="scale(-1,1)"
     y="35.78418"
     x="-21.957848"
     ry="5.3199649"
     height="89.813499"
     width="1.9943373"
     rx="0.99716866" />
  <rect
     id="rect3227"
     style="fill:#eeeeee;fill-opacity:1;stroke:#000000;stroke-width:1.06666672;stroke-miterlimit:4;stroke-dasharray:none;stroke-dashoffset:0;stroke-opacity:1"
     transform="matrix(0,-1,1,0,0,0)"
     y="9.5961838"
     x="-33.651951"
     ry="6.4450812"
     height="108.80811"
     width="13.149271" />
  <path
     id="path3213"
     style="fill:#eeeeee;fill-opacity:1;stroke:#000000;stroke-width:1.06666672;stroke-miterlimit:4;stroke-dasharray:none;stroke-dashoffset:0;stroke-opacity:1"
     d="M 14.418142,34.286558 C 16.278582,30.698205 20.913222,29.637882 24.364702,31.513928 C 28.549732,33.788697 29.765462,39.255995 27.486582,43.30919 C 24.794422,48.097426 18.483202,49.470163 13.823022,46.782554 C 8.4259325,43.669954 6.8948225,36.505447 9.9960725,31.233496 C 13.532032,25.222556 21.557882,23.531841 27.446002,27.050961 C 34.075262,31.01305 35.926692,39.907328 31.985972,46.415636 C 27.595162,53.667323 17.826122,55.680451 10.693872,51.314839 C 2.8160325,46.492856 0.64027254,35.843288 5.4337825,28.08363 C 7.6498925,24.496228 11.147582,21.792488 15.158082,20.503181" />
  <path
     id="path3225"
     style="fill:#eeeeee;fill-opacity:1;stroke:#000000;stroke-width:1.06666672;stroke-miterlimit:4;stroke-dasharray:none;stroke-dashoffset:0;stroke-opacity:1"
     d="M 113.58185,34.286558 C 111.72141,30.698205 107.08677,29.637882 103.63529,31.513928 C 99.450262,33.788697 98.234532,39.255995 100.51341,43.30919 C 103.20557,48.097426 109.51679,49.470163 114.17697,46.782554 C 119.57406,43.669954 121.10517,36.505447 118.00392,31.233496 C 114.46796,25.222556 106.4421,23.531841 100.55399,27.050961 C 93.924732,31.01305 92.073302,39.907328 96.014022,46.415636 C 100.40483,53.667323 110.17387,55.680451 117.30612,51.314839 C 125.18396,46.492856 127.35972,35.843288 122.56621,28.08363 C 120.3501,24.496228 116.8524,21.792488 112.84191,20.503181" />
</svg>
