<?xml version="1.0" encoding="utf-8"?>
<!-- Generator: Adobe Illustrator 13.0.1, SVG Export Plug-In . SVG Version: 6.00 Build 14948)  -->
<!DOCTYPE svg PUBLIC "-//W3C//DTD SVG 1.1//EN" "http://www.w3.org/Graphics/SVG/1.1/DTD/svg11.dtd">
<svg version="1.1" id="Layer_1" xmlns="http://www.w3.org/2000/svg" xmlns:xlink="http://www.w3.org/1999/xlink" x="0px" y="0px"
	 width="168.667px" height="190px" viewBox="0 0 168.667 190" enable-background="new 0 0 168.667 190" xml:space="preserve">
<g>
	<path d="M78.218,139.026c1.234-0.037,2.065,0.141,2.3,1.126c0.235,0.985-0.141,1.127-1.502,2.206
		c-1.361,1.079-2.722,1.736-4.083,2.723c-1.361,0.985-4.177,2.816-4.365,4.506c-0.188,1.689,0.141,2.675,1.549,2.675
		s3.145,0.234,5.397,0.234s4.365,0.517,7.087,1.314c2.723,0.799,3.942,1.878,7.838,3.802c3.896,1.925,8.261,4.084,11.875,4.976
		s6.196,1.126,7.839,0.563c1.643-0.563,1.314-1.784,1.314-1.784s0.891,0.518,2.299-0.516s0.141-3.849-0.985-4.929
		c-1.126-1.079-2.347-2.065-2.347-2.065s0.282-1.736-1.596-3.098s-3.989-2.676-7.838-2.91c-3.85-0.235-7.651,0.845-13.002,1.032
		c-5.351,0.188-9.528-0.798-10.044-1.126c-0.517-0.328-0.235-0.751,0.845-1.268c1.079-0.517,7.697-4.364,10.607-6.853l1.549,0.282
		l0.141-0.846l0.563,0.61c0,0,1.314,0.47,1.361-4.459c0,0,1.126,0.376,1.314-0.375c0.188-0.751,0.094-3.286-3.755-4.506
		c-3.85-1.221-6.666-1.644-9.388-3.192s-3.989-2.769-3.989-2.769s5.96-7.839,8.824-11.922c0,0,1.83,1.079,6.383,1.268
		c4.553,0.188,6.337-2.723,5.867-6.196s-2.253-5.21-3.379-5.632c0,0-0.048-0.986-0.188-1.644c0,0,2.957-3.379,8.496-16.193
		c0,0,4.646,2.91,6.758,4.882c2.112,1.971,5.351,5.726,6.853,5.914l0.282-0.47c0,0,2.3,2.535,4.553,0.845
		c0,0,0.281-0.75-0.281-0.985c0,0,2.628-0.234,2.769-1.36c0,0-0.094-0.517-0.985-1.033c0,0,4.271-3.098,5.82-6.759
		c1.549-3.661,0.563-3.051,1.925-4.834c1.36-1.784,3.237-4.459,5.256-4.6c0,0,1.549,1.174,5.867,0.751
		c4.318-0.423,6.008-1.925,7.04-2.863c0,0,1.972,0.188,3.145-0.047c1.174-0.234,2.348-0.141,3.427-0.141
		c0,0-1.127,2.629-0.563,4.694s1.126,2.769,2.628,2.769s2.676-1.69,3.709-2.863c1.032-1.174,2.675-8.261-1.456-8.824
		c-4.13-0.563-6.43-0.281-7.463-0.516c-1.032-0.235-2.019-1.409-1.924-1.831c0.094-0.423,1.689-2.863,2.487-3.192
		s1.361,0.61,3.333,0.704c0,0,0.059,2.159,1.643,2.582c1.583,0.422,2.394,0.563,4.036-0.657c1.643-1.22,4.506-7.416,1.408-8.965
		s-4.131-0.375-7.229,0.892c-3.098,1.267-5.726,1.689-7.557,1.643c-1.83-0.047-2.676-0.892-2.065-1.878
		c0.61-0.985,1.55-1.642,3.708-2.957c0,0-0.188,1.549,1.549,1.736c1.737,0.188,4.084,0,6.478-3.004s1.644-8.026,0.517-9.012
		c-1.127-0.986-2.91-2.722-5.914-0.047s-6.337,6.336-10.937,10.044s-7.885,4.881-10.467,2.582c0,0,1.268-0.563,2.723-1.033
		s3.802-2.44,2.863-4.178c-0.938-1.736-4.178-3.473-6.993-2.299c-2.816,1.173-6.994,3.849-7.135,6.853s2.019,3.708,3.708,4.834
		s3.849,2.253,4.365,4.788c0.516,2.535,0.563,6.665-0.845,8.12c-1.408,1.455-4.319,3.567-6.713,4.834s-4.506,3.192-4.506,3.192
		s-4.317-2.394-6.289-5.163c-1.971-2.769-3.332-6.477-3.332-6.477s1.267-7.651-1.314-11.5c0,0,1.596,0.188,1.924,0
		c0.329-0.188-0.093-3.567-4.317-4.975c0,0,1.221-0.938,0.704-1.502s-1.644-1.173-5.398-0.705c0,0,1.08-4.271-0.234-5.444
		s-3.191-2.3-3.521-2.159c-0.328,0.141-0.61-1.971-1.689-2.252c0,0,2.581-0.141,3.238,0.188s0.142-1.173-0.845-1.69
		c-0.985-0.516-2.487-1.22-4.646-1.22c0,0,0.234-3.52-0.704-4.083c-0.938-0.563-1.268,0.985-1.268,0.985s0.141-4.506-1.689-4.693
		c0,0-0.798,0.281-0.798,1.83s-0.188,1.878-0.188,1.878s-2.91-1.737-6.806-0.047c0,0,1.737-1.549,2.957-1.831
		c1.22-0.281,0.376-1.596-2.019-1.08c-2.394,0.517-4.553,1.033-6.665,3.004c0,0,0.328-1.502,1.549-2.581
		c1.221-1.08,2.159-3.051-0.892-1.877c-3.051,1.173-4.13,5.069-4.13,5.069s-0.563-2.3-1.22-1.361
		c-0.657,0.938-1.362,4.271-1.362,4.271s-1.924-2.019-2.628-3.426c-0.704-1.408-1.033-4.365-0.986-5.633
		c0.047-1.267-0.329-2.018-1.689-0.375c-1.361,1.643-1.784,3.52-1.596,5.304c0,0-0.657-1.69-1.126-1.08
		c-0.469,0.61-1.643,1.08-1.22,4.881c0.422,3.802,3.051,5.82,3.051,5.82s-1.22,0-1.455,1.924c0,0-1.549-0.329-2.628-1.831
		s-1.267-2.159-1.596-3.333s-1.221-1.361-1.221,0.61c0,0-0.891-0.939-2.252-1.08c-1.361-0.141-3.286-0.047-2.112,1.455
		c0,0-1.784-0.704-3.286,0.469s-1.502,1.877-0.422,2.253c0,0-1.033,1.596-0.282,2.019c0,0-0.892,1.549,0.141,3.285
		c0,0-1.267-1.173-3.802-0.516c0,0,0.422,1.173,0.704,1.455c0,0-1.455,0.188-0.282,1.455c0,0-4.318-0.047-8.12,0.563
		s-6.102,1.173-9.199,0.375c-3.098-0.798-6.478-2.769-8.636-4.834c0,0,2.769-1.737,5.491-4.365c2.722-2.629,2.91-2.816,5.68-3.474
		c2.769-0.657,3.989-0.845,4.6-1.22c0,0,2.722,0.188,3.99-0.657c0,0,2.159,0.657,4.928-1.033c2.769-1.69,4.459-4.74,5.867-6.336
		c1.408-1.596,1.784-1.173,3.286-1.924s2.44-1.69,1.267-3.99s-1.126-3.567-2.91-5.163c-1.783-1.596-3.145-3.286-4.6-1.268
		c-1.455,2.019-0.938,4.694,2.676,7.933c0,0-1.972,1.267-3.38,1.126s-2.394-1.502-2.722-3.849c-0.329-2.347-0.375-4.177,0.375-6.008
		c0.751-1.831,2.394-5.304,3.473-5.116c0,0,0.329,2.535,1.643,3.802c1.314,1.267,2.534,1.455,3.473,0.329s2.722-4.741,1.596-8.636
		c-1.126-3.896-2.816-4.834-4.834-4.647c-2.018,0.188-4.177,0.845-6.665,6.149c0,0-0.657-3.004-4.13-4.881
		c-3.473-1.877-3.145-1.549-4.037-0.282c-0.892,1.268-0.798,2.347-0.657,4.6c0.141,2.253-0.375,5.304-0.798,6.336
		c0,0-1.643-2.581-4.318-3.426c-2.675-0.845-3.567,0.657-4.318,3.333s-0.938,4.788,0.704,9.95c1.643,5.163,2.628,7.37,5.163,10.232
		c0,0,1.173,1.174-2.769,1.69c-3.943,0.516-3.99,0.657-9.81,1.08c-5.82,0.422-13.236,2.206-15.114,7.65c0,0,0.704,0.61,2.253-0.282
		c0,0-2.253,1.972-1.361,5.117c0,0,0.797,0.61,1.22-0.235c0.422-0.845,0.751-1.126,0.751-1.126s-0.141,3.567,1.126,3.989
		c0,0,0.469-0.328,0.751-0.751c0,0,0.469,0.517,1.408,1.549c0.939,1.033,3.849,3.521,7.416,5.069
		c3.567,1.549,9.247,5.163,12.204,7.932c2.957,2.77,6.008,6.29,6.008,6.29s1.033,4.037,1.502,8.214s1.314,10.749,1.971,15.161
		c0.657,4.412,1.784,8.729,2.065,12.203c0.282,3.474-0.75,8.308-1.032,10.748c-0.282,2.441-0.141,5.304-1.314,7.933
		c0,0-3.239-3.333-4.271-6.618c-1.033-3.286-2.723-8.824-4.929-11.828c-2.206-3.004-4.271-4.834-7.04-4.787
		c0,0-0.798,0.938,0.234,1.596s2.065,2.394,3.051,4.271c0.985,1.877,1.314,3.332,1.267,4.646c0,0-1.361-1.268-1.596-0.188
		c-0.235,1.079,0.329,2.018,0.892,3.285c0.563,1.268,0.704,5.21,0.845,7.557c0.141,2.347,0.751,4.881,2.582,6.618
		c1.831,1.737,3.755,2.487,4.834,2.863c0,0-2.3,2.675-4.881,5.022c-2.582,2.347-3.426,4.506-3.426,4.881
		c0,0.376,2.206,0.329,2.206,0.329s-1.737,3.191-1.033,4.693h1.361c0,0-0.75,3.238,1.502,3.848l0.422-0.375
		c0,0,1.033,1.784,2.347,2.206c1.314,0.423,4.083,2.205,10.514,2.3c0,0-5.163,2.019-7.838,2.347
		c-2.675,0.329-6.383,0.234-9.105,0.047c-2.723-0.188-5.632-0.563-9.998,3.38c-4.365,3.942-4.834,6.665-4.412,7.744
		c0,0-1.877,3.942,0.375,6.478c2.253,2.534,3.52,0.188,5.398-0.751c0,0,0.329,1.032,2.957,1.079
		c2.629,0.047,5.022-0.798,8.167-3.004c3.145-2.205,8.12-6.524,11.875-9.199c3.755-2.676,8.683-5.633,10.936-6.712
		c2.253-1.08,2.534-2.159,2.065-2.91c-0.47-0.751-0.939-1.549-4.413-2.112c-3.473-0.563-7.04-1.221-7.838-3.051
		c-0.798-1.83,0.094-3.145,3.38-5.538c3.286-2.395,10.889-4.975,13.94-6.008s5.351-0.798,8.824-0.985
		C72.209,139.4,75.028,139.121,78.218,139.026L78.218,139.026z"/>
	<path fill="#825810" d="M39.094,129.139c0,0-1.128,3.946-2.819,5.826c0,0-3.571-0.564-5.137-2.819
		c-1.566-2.255-2.443-3.445-2.631-7.329c-0.188-3.885-0.626-7.393-1.754-9.084c0,0,1.253,1.002,1.754,1.44
		c0,0,0.501-3.946-1.378-6.953c-1.879-3.007-2.757-3.946-3.759-4.511c0,0,2.38-0.25,4.761,2.631
		c2.381,2.883,3.508,4.323,4.887,9.272C34.395,122.561,36.775,127.385,39.094,129.139L39.094,129.139z"/>
	<path fill="#E0D0BB" d="M105.344,58.046c-1.359-1.781-3.469-2.203-5.578-2.25c-2.108-0.047-3.937,0.094-3.937,0.094
		c1.64,0.562,2.905,1.313,3.328,2.296c0.422,0.984-0.142,3.563-1.876,5.391s-5.25,2.953-8.53,3.328
		c-3.282,0.375-5.953-1.922-6.422-3.234s1.031-3.75,1.031-3.75c-1.031,0.609-3.375,2.719-4.031,3.609
		c-0.657,0.891-1.172,1.125-1.172,1.125c0.516-1.313,2.297-3.141,2.297-3.141c-6.234-4.406-10.453-5.672-13.734-6.469
		c-3.281-0.797-5.015,0.375-5.015,0.375c0.703,0.141,3.14,1.172,3.14,1.172s-2.015-0.141-5.015,0.329
		c-3,0.469-4.875,3.375-4.875,3.375c1.347-0.381,2.146-0.377,2.817-0.161c-0.621,0.369-1.255,0.908-1.871,1.688
		c-3.06,3.87-4.59,10.89-5.04,15.209c-0.45,4.32-0.09,13.049,0.9,17.279c0.854,3.653,0.636,5.495,0.618,9.116
		c-0.196,3.495-0.656,8.407-1.519,14.014c-1.08,7.02-0.45,9.449-0.18,11.699c0.271,2.25,3.69,5.311,11.16,5.04
		c7.469-0.27,13.5-6.84,17.009-10.35s8.55-11.7,8.55-11.7c-0.45-0.09-1.08-0.899-1.08-0.899c-10.62,4.59-12.87,9.449-16.739,10.529
		c-3.87,1.08-6.93,0.63-8.82-3.06c-1.89-3.689-1.62-5.49-1.62-14.039c0-0.387-0.018-0.746-0.043-1.092
		c0.314-0.326,0.555-0.421,0.584,0.011c0.09,1.351,0,5.4-0.09,7.381c-0.09,1.979,0.18,5.31,1.71,7.829
		c1.53,2.521,3.87,3.24,5.67,3.061c1.8-0.181,3.87-1.08,5.58-2.341c1.71-1.26,6.93-5.939,11.789-7.919c4.86-1.98,4.23-0.9,4.23-0.9
		s-0.899,0.09-1.529,0.36c0,0-0.36,0.81,3.689,1.709c4.05,0.9,7.109,0.54,8.28-1.26c1.17-1.8,1.529-5.939-2.16-8.819l-0.181,1.62
		c0,0,0.63,0.989-0.449,0.449c-1.08-0.539-3.87-1.079-7.021-0.989c-3.149,0.09-6.75,1.439-9.449,2.34
		c-2.7,0.899-3.06,1.979-5.22,3.33c-2.16,1.35-4.95,2.97-7.379,2.069c-2.43-0.899-3.87-4.229-4.68-8.369
		c-0.811-4.141-0.63-8.91,0.9-18.45s2.52-17.189,5.76-21.06c0,0-0.221-0.014-0.705,0.025c-0.334,0-0.792,0.023-1.284,0.117
		c-0.984,0.188-0.422-0.703,1.64-0.797s3.375,0.563,4.922,1.359s1.266,0.938,0.141,0.422s-1.875-0.703-1.875-0.703
		c-0.609,1.875-1.266,3.609,0.844,6.891s7.781,3.281,10.688,2.578s6.469-3.797,7.594-4.969s1.781-2.063,2.813-2.156
		s0.796,0.094-0.141,0.328c-0.938,0.234-0.703,0.516-0.703,0.516c2.391,0.797,3.608,0.516,6.468,0.563s3.563-0.188,5.672-2.625
		C107.313,62.734,106.703,59.828,105.344,58.046L105.344,58.046z"/>
	<path d="M79.188,66.765c-0.304-0.395-1.5,0.188-1.219,0.75S79.657,67.375,79.188,66.765L79.188,66.765z"/>
	<path d="M78.392,70.656c-0.524,0.104-0.516,0.563-0.375,0.844s0.515,0.188,0.797-0.188C79.095,70.937,79.095,70.515,78.392,70.656
		L78.392,70.656z"/>
	<path d="M74.501,66.765c-0.371,0.222,0,0.656,0.328,0.328S74.735,66.625,74.501,66.765L74.501,66.765z"/>
	<path d="M102.484,64.75c-0.563,0.103-0.563,0.75-0.094,1.031s0.75,0.188,0.844-0.188S103,64.656,102.484,64.75L102.484,64.75z"/>
	<path d="M102.672,61.328c-0.362,0.136-0.094,0.656,0.328,0.375S103.047,61.188,102.672,61.328L102.672,61.328z"/>
	<path d="M104.125,60.062c-0.3,0-0.094,0.563,0.281,0.375C104.781,60.25,104.406,60.062,104.125,60.062L104.125,60.062z"/>
	<path fill="#FFFFFF" d="M63.873,106.5c0,0,0.676,2.549,2.497,4.005c1.82,1.456,2.08,0.677,2.08,0.677s0.572-3.225,0.156-5.306
		c-0.416-2.08-1.041-3.173-2.133-2.34C65.382,104.368,64.653,105.2,63.873,106.5L63.873,106.5z"/>
	<path fill="#FFFFFF" d="M68.97,111.181c0,0,1.561,0.207,4.161-1.404c2.6-1.612,3.588-2.86,5.305-3.589c0,0-0.78-3.485-1.873-6.762
		s-2.081-5.306-2.497-5.306s-0.884,2.445-1.404,5.462S69.958,108.32,68.97,111.181L68.97,111.181z"/>
	<path fill="#FFFFFF" d="M79.216,105.771c0,0,2.132-0.779,4.525-1.611c0,0-0.104-1.82-0.988-3.173
		c-0.884-1.353-1.196-1.145-1.612-0.313C80.725,101.506,79.373,104.94,79.216,105.771L79.216,105.771z"/>
	<path fill="#FFFFFF" d="M84.574,103.951c0,0,3.016-0.676,4.577-0.728c0,0,0.053-1.873-0.779-3.277
		c-0.833-1.403-1.145-1.924-1.925-0.623C85.666,100.623,84.209,103.275,84.574,103.951L84.574,103.951z"/>
	<path fill="#FFFFFF" d="M89.619,103.171c0,0,4.057-0.052,6.397,0.937c0,0,0.624-2.705-0.104-5.41
		c-0.729-2.704-1.924-4.16-2.549-4.629c-0.624-0.468-0.728-0.155-1.092,1.353s-1.04,4.629-2.809,6.813L89.619,103.171
		L89.619,103.171z"/>
	<path fill="#ED1847" d="M63.249,88.244c0,0-0.676,5.41-0.78,8.374c-0.104,2.965,0.208,6.033,1.145,9.206
		c0,0,1.144-1.665,2.236-2.341s1.873-1.3,2.705,0.521c0.833,1.82,0.676,4.057,0.728,4.889c0,0,1.092-3.068,2.081-6.657
		s1.3-7.021,1.977-8.01s0.832-0.988,1.508-0.052s1.873,4.005,2.548,6.345c0.676,2.341,1.353,4.733,1.353,4.733
		s0.884-2.444,1.612-3.953c0.729-1.508,1.145-2.236,1.873-1.56c0.729,0.676,1.665,2.08,1.821,3.016c0,0,1.04-2.496,1.769-3.432
		c0.728-0.937,1.092-1.405,1.456-1.197c0,0-0.729-4.368-2.549-7.905c-1.82-3.537-4.057-6.345-7.125-6.033
		c-3.068,0.312-4.212,2.601-4.473,3.589c0,0,0.78,1.196,0.676,2.705c0,0-0.572-2.289-2.237-4.109S67.15,82.106,63.249,88.244
		L63.249,88.244z"/>
	<path fill="#A72244" d="M87.851,98.125c0,0-1.041-5.46-2.601-8.269c-1.561-2.809-3.329-5.045-4.993-5.722
		c-1.664-0.676-5.461-1.248-7.438,2.861c0,0-1.82-3.484-4.941-3.225c-3.121,0.26-4.369,2.965-4.473,3.225
		c0,0,0.832-4.681,1.352-7.958c0.52-3.277,1.665-11.339,4.837-15.396c0,0,0.832-0.26,1.924,0.26c0,0-1.353,2.809-0.312,5.097
		c1.04,2.288,1.508,3.016,2.132,3.484c0,0-0.572,4.161,2.808,5.565c0,0,1.613-3.485,1.769-3.589l0.625,0.104
		c0,0,0.364,1.769,0.364,3.277S78.8,81.118,78.8,81.951c0,0.832,0.104,1.3,0.676,1.404s2.185-0.417,3.901-3.173
		s2.028-4.681,2.132-6.969l1.196-0.572c0,0-0.26,2.86,0.521,3.172c0.78,0.313,1.508,0.156,2.288-1.3
		c0.78-1.457,1.82-3.849,1.977-5.565l0.364-0.572c0,0-0.208,2.081-0.208,3.589s0.312,2.185,0.936,2.549
		c0.624,0.364,1.405-0.104,2.497-1.821c1.092-1.716,2.288-3.953,2.288-3.953s-0.572,3.069-1.3,5.253
		c-0.729,2.185-1.093,3.277-0.729,3.953c0,0-0.416,1.561-1.352,3.849c-0.937,2.289-2.081,4.681-2.133,7.438
		c-0.053,2.757,0.624,4.213,0.624,4.213s-0.729,2.133-1.196,3.745s-1.248,3.381-1.769,4.108
		C89.515,101.298,88.734,99.01,87.851,98.125L87.851,98.125z"/>
	<path fill="#E0D0BB" d="M95.971,78.097c0,0-1.705,4.191-2.416,6.749c-0.71,2.557-1.421,4.546-0.497,8.311
		c0,0,3.339,2.558,3.623,6.536c0,0,3.481-6.181,5.825-10.798c2.345-4.618,6.039-16.411,6.465-17.831
		c0.427-1.421,0.355-1.776,0-2.558c-0.355-0.781,0-1.208,0.427-0.497c0.426,0.71,0.78,1.137,0.78,2.06c0,0,1.137-2.7,0.285-7.104
		c-0.853-4.404-1.421-4.404-1.421-4.404s1.278-0.498,2.202-0.143c0,0-1.137-3.054-4.831-3.836c0,0,0.071-0.426,0.711-0.923
		c0.639-0.498,0.568-0.995-0.782-1.066c-1.35-0.071-6.891,0.285-8.524,2.7c0,0,3.623,0,5.399,0.568
		c1.775,0.568,4.049,3.41,3.765,5.683c-0.284,2.273-1.137,4.404-3.907,6.394c0,0-1.278,4.973-2.842,6.962
		C98.67,76.889,97.036,77.955,95.971,78.097L95.971,78.097z"/>
	<path d="M104.116,64.362c0,0-0.758,0.568,0.189,0.663s5.872,0.189,10.987,1.989C115.293,67.015,113.398,65.499,104.116,64.362
		L104.116,64.362z"/>
	<path d="M103.832,61.899c0,0-0.474,0.474,0.284,0.474s7.104-1.231,12.219-0.379C116.335,61.995,111.599,61.142,103.832,61.899
		L103.832,61.899z"/>
	<path fill="#FFFFFF" d="M73.839,72.695c0,0,2.829,1.349,3.75,1.514c0,0-1.382,2.829-1.612,3.125
		C75.747,77.63,73.411,76.215,73.839,72.695L73.839,72.695z"/>
	<path fill="#FFFFFF" d="M79.07,74.471c0,0,3.686,0.033,5.89-1.02c0,0,0.394,2.303-1.284,5.231s-2.434,3.455-3.29,3.916
		c-0.855,0.46-1.185,0.691-1.119-0.823C79.333,80.262,79.399,75.59,79.07,74.471L79.07,74.471z"/>
	<path fill="#FFFFFF" d="M87.229,72.267c0,0-0.428,3.126,0.23,3.257c0.658,0.131,1.81,0,3.619-6.35
		C91.079,69.174,87.821,71.905,87.229,72.267L87.229,72.267z"/>
	<path fill="#FFFFFF" d="M92.625,67.694l-0.428,0.395c0,0-0.197,3.027-0.197,3.784s0.296,2.171,0.79,2.271
		c0.493,0.099,1.514-0.56,4.277-5.857C97.067,68.286,94.698,68.319,92.625,67.694L92.625,67.694z"/>
	<path fill="#FFFFFF" d="M97.791,68.286c0,0-0.494,3.652-1.251,5.725s-1.282,3.455-0.789,3.652c0.493,0.198,1.875-0.329,3.783-2.764
		c1.909-2.435,2.501-4.968,2.863-6.843C102.397,68.056,99.699,68.516,97.791,68.286L97.791,68.286z"/>
	<path fill="#FFFFFF" d="M94.601,58.191c0.28,0.903-0.881,2.133-2.657,2.765c-1.85,0.657-3.638,0.415-3.924-0.562
		c-0.285-0.972,1.044-2.247,2.898-2.83C92.7,57.003,94.32,57.291,94.601,58.191L94.601,58.191z"/>
	<path fill="#825810" d="M114.547,156.744c-1.628-2.056-5.612-4.542-7.327-4.842c0,0-0.557-0.428,0.558-0.214
		c1.113,0.214,3.514,1.457,4.113,2.057c0,0,0.471-1.328-2.143-2.956c-2.613-1.629-5.014-2.571-8.87-2.271
		c-3.855,0.3-11.783,1.199-15.725,0.856c-3.942-0.342-6.728-1.242-6.342-2.014s2.228-1.843,5.228-3.599
		c3-1.758,6.771-4.328,7.114-5.271l1.199,0.6c0,0,0.215-1.328,0-1.799c0,0,1.243,0.042,1.5,1.37c0,0,0.938-1.614,0.191-4.984
		c0.749,0.266,1.404,0.64,1.651,0.957c0,0-0.001-1.971-1.586-2.742s-4.456-1.757-6.898-2.271c-2.443-0.514-5.228-1.628-8.355-5.013
		c0,0-3.343,3.813-6.856,6.256c-3.514,2.442-8.655,4.156-12.254,4.113c-3.6-0.043-8.57-2.313-9.556-5.185
		c-0.921-2.683-0.458-7.947-0.218-10.584c0.472-2.954,0.77-6.157,1.104-9.251c0.414-3.848,1.006-9.709,0.71-12.018
		c-0.296-2.309-1.54-7.044-1.717-14.74c-0.178-7.696,1.539-17.523,5.92-22.377c0,0-1.006-0.059-1.835,0.355
		c0,0-0.06-4.025,6.808-5.091l-0.533-0.533c0,0-2.486,1.125-4.795-0.532c-2.309-1.658-4.203-3.552-4.203-3.552
		s-1.125-1.184-3.611-1.243c0,0,1.421,1.006,1.54,1.539c0.118,0.533-0.77,0.237-1.48,0.119c-0.71-0.119-0.889,0.237-0.237,0.533
		c0.651,0.296,1.006,0.888,0.059,0.888s-6.334,0.119-9.768,0.651s-2.664,1.184-5.979,0.71c-3.315-0.474-8.702-2.427-11.307-5.564
		c0,0-3.576,1.308-6.547,1.232c0.812-0.327,3.435-0.894,5.079-1.611c2.522-1.102,4.262-1.989,6.998-4.938
		c2.735-2.948,5.79-3.694,7.672-3.942c1.882-0.249,2.415-0.782,2.415-0.782c-0.817-0.106-0.71-0.497-0.533-0.497
		s1.741,0.142,3.126,0.142s2.557-0.888,3.019-2.096c0.462-1.208,0-2.735-0.284-3.587c-0.284-0.853-0.249-1.244,0.071-0.746
		c0.32,0.497,0.462,0.853,0.888,2.522s-0.391,3.125-0.391,3.125c3.339,0.497,6.287-2.557,7.317-4.014
		c1.03-1.456,1.492-2.131,2.735-3.161c1.243-1.03,2.202-1.457,3.019-1.918c0.817-0.462,1.243-1.279,1.243-1.279
		c-0.817-3.765-2.309-5.363-3.552-6.82c-1.243-1.456-2.593-2.06-3.481-0.923c-0.888,1.136-0.675,1.954,0.036,3.623
		c0.71,1.67,3.232,3.694,3.232,3.694c-0.817,1.101-1.776,1.634-3.481,1.918s-2.522-0.142-3.055-0.888
		c-0.533-0.746-1.101-2.983-1.208-4.12c-0.106-1.137-0.249-1.705-0.142-3.303c0.106-1.598,0.533-2.735,2.024-5.541
		c1.492-2.806,2.522-2.416,2.522-2.416s0-0.639,0.036-1.101c0.035-0.462,0.177-3.375,0.497-0.106
		c0.32,3.268,1.385,4.902,2.522,5.719s2.238-0.462,3.268-3.943c1.03-3.481-1.066-7.246-2.664-8.276
		c-1.599-1.03-4.653,0.817-5.896,2.451c-1.243,1.634-2.273,4.156-2.273,4.156c0.106,1.492,0.604,3.126-0.319,4.618
		c-0.924,1.492-3.055,0.249-3.055,0.249c-1.349,2.416-1.208,3.446-1.208,4.014c0,0.568,0.355,1.847,0,1.598
		c-0.355-0.249-0.639-1.669-0.391-2.912c0.249-1.243,1.101-3.055,1.101-3.055c-3.375-2.522-3.481-6.5-3.481-6.5
		s0.675,1.244,1.102,2.771c0.426,1.527,2.734,3.268,3.871,3.871c1.137,0.604,2.061-0.604,2.132-1.847
		c0.071-1.243-0.391-3.979-1.812-5.967c-1.42-1.989-3.942-3.552-4.866-3.765c-0.923-0.213-1.243,0.533-1.527,1.847
		c-0.284,1.314,0,3.516,0.036,5.612c0.035,2.096-1.03,4.653-1.03,4.653c1.03,1.137,1.421,2.167,1.883,4.582
		c0.461,2.415-1.03,4.156-2.344,4.156c-1.314,0-3.197-1.599-4.476-3.623c-1.279-2.025-1.066-3.587-1.066-3.587
		s0.853,2.025,2.38,4.44c1.527,2.416,3.872,1.989,4.369,1.563c0.497-0.426,0.568-4.014-0.781-6.571
		c-1.35-2.558-4.049-4.263-5.328-4.724s-2.238,0.639-3.268,3.907c-1.03,3.268-0.249,6.003,1.563,10.833s3.587,6.926,4.511,7.814
		c0.923,0.888,0.497,1.172,0.284,1.776c-0.213,0.604-1.101,0.782-3.055,1.279s-8.951,1.137-13.746,1.705
		c-4.795,0.568-6.216,1.705-8.276,3.055c-2.06,1.349-2.486,2.628-2.486,2.628s0.959-0.674,1.812-0.674s0.036,0.639-1.065,2.273
		c-1.102,1.634-0.355,3.445-0.355,3.445c0.533-1.35,1.776-2.344,2.096-2.131c0.121,0.081,0.186,0.434,0.22,0.842
		c-0.002,0.008-0.004,0.015-0.006,0.022c-0.474,1.895-0.06,2.605,0.237,3.375c0,0,0.236-1.362,1.302-0.77
		c1.065,0.592-0.474,0.415,2.782,2.901s3.789,2.783,6.216,3.848c2.427,1.065,5.209,3.019,8.347,4.973
		c3.137,1.954,7.992,6.689,9.59,8.525c1.599,1.835,0.651,2.309,1.302,4.38c0.651,2.072,0.415,3.138,0.711,5.624
		c0.296,2.486,0.592,6.512,0.888,7.814c0.507,2.23,1.065,8.584,1.599,10.715c0.533,2.131,1.302,6.571,1.302,8.88
		c0,1.434,0,3.188-0.014,4.863c-0.005,0.033-0.013,0.062-0.016,0.097c-0.386,3.856-0.771,4.842-1.243,8.526
		c-0.471,3.686-1.756,7.585-2.056,8.527c-0.723,2.268-2.742,4.199-5.099,6.813c-2.356,2.613-5.099,5.014-5.57,6.213
		c0,0,1.2,0.129,2.143,0.086c0,0-0.771,0.729-0.986,2.014c-0.214,1.285-0.771,2.657-0.771,2.657s1.028-0.729,1.5-0.086
		c0.036,0.048,0.079,0.09,0.126,0.128c-0.459,1.689-0.628,2.827,0.472,3.812c0,0,0.198-1.387,0.726-1.321
		c0.528,0.066,0.066,1.585,1.717,2.773c1.651,1.189,5.019,2.378,8.585,2.642c3.566,0.265,6.009-0.132,6.273,0.265
		s-1.716,0.396-3.962,1.387c-2.245,0.99-5.547,2.179-8.188,2.443c-2.38,0.238-6.273,0.198-9.246-0.132
		c-2.971-0.331-4.755,0.132-6.736,1.519s-3.764,3.236-5.085,4.953s-1.651,2.113-1.453,3.235c0,0,1.453-2.179,2.575-3.037
		c1.123-0.859,2.444-1.52,4.359-1.321c0,0-3.5,0.595-5.019,2.905c-1.519,2.312-3.104,4.161-2.444,6.538
		c0.661,2.378,1.717,2.642,2.774,2.443s2.047-1.188,2.708-1.915c0,0-0.792-2.575,0.528-4.82c1.321-2.246,3.236-3.896,6.274-3.896
		c0,0-3.17,0.99-4.557,2.708c-1.387,1.717-2.047,3.764-1.519,6.009c0,0,0.528,1.387,2.906,1.255s5.085-1.452,7.991-3.5
		c2.905-2.047,4.49-3.632,8.584-6.935c4.095-3.302,9.18-5.943,11.293-7c2.113-1.056,4.094-1.914,4.094-3.169
		s-2.113-1.718-4.688-2.048c-2.576-0.33-6.34-0.925-7.462-3.17s-0.726-3.962,2.576-6.075c2.456-1.572,5.022-2.888,7.536-3.921
		c1.425-0.438,3.698-1.221,5.273-1.895c0.508-0.175,0.998-0.342,1.464-0.499c2.172-0.607,5.444-1.146,7.183-1.346
		c1.027-0.025,2.175-0.05,3.441-0.133c3.038-0.197,7.396-0.396,9.179-0.197c0.183,0.02,0.315-0.013,0.409-0.084
		c0.708,0.12,1.277,0.297,1.488,0.558c0.729,0.899,0.557,2.186-0.171,2.956c-0.729,0.771-3.128,2.229-5.099,3.6
		c-1.971,1.371-3.728,2.657-4.157,4.414c-0.428,1.757,0.857,1.628,1.8,1.628c0.942,0,5.913-0.043,9.041,0.686
		c3.128,0.729,4.584,1.414,7.627,2.999c3.042,1.586,8.74,4.671,11.997,5.699c3.256,1.028,7.069,2.057,8.569,1.886
		s2.528-0.643,2.442-1.714c-0.085-1.071-1.585-2.914-3.642-4.156c-2.057-1.243-3.128-1.585-3.085-1.757s0.472-0.215,1.628,0.3
		c1.157,0.515,4.842,3.128,5.441,4.842c0,0,1.029,0.729,1.843,0.3C115.661,160.257,116.175,158.8,114.547,156.744L114.547,156.744z"
		/>
	<path fill="#825810" d="M51.469,46.155c0,0,2.167-1.548,3.405-1.754c1.238-0.207,3.611,0.464,4.694,1.754
		c1.083,1.29,1.754,2.27,1.754,2.27s0.258-0.67,0.155-1.032c0,0,1.083,0.877,1.187,2.683s-0.361,4.127-0.877,4.591
		c-0.516,0.464,1.29-0.929,4.54-0.31s5.778,1.599,5.778,1.599s-1.083-2.528,0.361-5.004c0,0-1.444-0.31-2.425,0.155
		c-0.98,0.464-2.476,1.083-2.115,0.516c0.361-0.567,1.496-1.96,1.496-1.96s-0.774-0.31-0.207-0.825
		c0.567-0.516,1.341-1.341,3.095-1.444c1.754-0.103,3.536-0.021,6.242,0.722c2.631,0.722,7.016,2.734,9.08,4.437l-0.104-0.258
		c0,0,0.052-4.333,1.29-6.604c1.238-2.27,2.167-3.663,2.27-4.023c0.104-0.361-0.773-1.497-1.548-1.083
		c-0.773,0.413-3.25,2.167-4.179,4.643c0,0-1.187-1.393,3.869-5.313c0,0-0.516-0.567-1.031-0.67
		c-0.516-0.104-3.096-0.104-3.096-0.104s2.115,1.651,0.567,2.838c-1.547,1.187-4.591,0.413-6.964-0.826c0,0,4.953,1.548,6.294,0.413
		c1.341-1.135-0.62-2.167-1.341-2.373c0,0-3.508-0.155-4.23-0.826c0,0-0.206-0.258,1.651-0.206c1.857,0.052,7.48,0.103,8.873-0.052
		s2.579-1.238-0.155-2.115c-2.733-0.877-5.21-0.155-6.036,0.258c-0.825,0.413-1.083,1.032-1.547,0.567
		c-0.464-0.464,0.722-2.321,4.179-3.766c0,0-2.786-0.103-5.313,1.187c-2.528,1.29-3.56,2.631-3.56,2.631s-0.67-3.095,2.941-5.571
		c0,0-2.941-0.104-5.623,5.88c0,0-1.135-0.619-0.98-1.806c0,0-0.928,2.012-1.341,5.004c0,0-2.528-1.651-3.56-3.869
		s-1.341-3.766-0.98-7.119c0,0-1.857,1.135-2.064,4.076c-0.206,2.94,0.31,3.146-0.516,3.146s-1.135-1.857-1.135-1.857
		s-1.909,3.87,0.155,6.707c2.063,2.837,3.714,3.56,3.714,3.56s-2.115-0.464-2.528,0.619c-0.413,1.083-0.464,1.6,0.722,2.58
		c0,0-0.774,0.31-2.631-1.083c-1.857-1.393-3.508-2.837-4.127-5.313c0,0-0.207,0.619-0.31,1.238c0,0-2.374-2.58-4.437-1.445
		c0,0,1.135,1.032,1.032,1.548c-0.103,0.516-0.31-0.516-1.96-0.413s-2.889,1.341-2.889,1.341l1.187,0.206
		C52.191,44.297,51.366,45.381,51.469,46.155L51.469,46.155z"/>
	<path d="M75.974,43.008c-1.238-0.052-1.857,0.103-2.373,0.619c-0.516,0.516-1.238,0.052-0.104-0.567s3.405-1.083,6.139,0.361
		c0,0,0.826,0.671-1.238,0.052C76.334,42.853,75.974,43.008,75.974,43.008L75.974,43.008z"/>
	<path fill="#E0D0BB" d="M57.711,45.587c-1.175-0.641-2.837-0.877-4.437,0.207c-1.599,1.083-3.663,2.527-1.083,5.468
		c2.58,2.94,5.21,4.178,7.016,4.023s3.044-2.476,2.786-3.869C61.735,50.024,59.981,46.825,57.711,45.587L57.711,45.587z"/>
	<path fill="#825810" d="M90.114,39.143c0,0,0.138,0.231,0.138,0.509c0,0,1.018,0.277,1.896,1.017c0,0,1.156-1.109,2.497-1.202
		c0,0,0.277-3.329-0.37-3.421l-1.155,1.525c0,0-0.324-0.555-0.324-1.433s-0.276-3.56-1.248-3.56c-0.462,0,0.647,1.11-0.323,3.19
		c0,0,1.757,0.925,1.109,2.034C91.686,38.912,91.131,38.866,90.114,39.143L90.114,39.143z"/>
	<path fill="#FFFFFF" d="M80.839,61.014c0,0-3.552-2.482-5.242-3.23c0,0-1.327-2.482-0.834-3.98
		c0.492-1.498,2.375-3.103,5.499-2.396c3.124,0.706,6.162,2.247,8.708,4.621C88.969,56.029,86.637,56.778,80.839,61.014
		L80.839,61.014z"/>
	<path d="M85.332,54.681c-0.928-0.272-2.097,0.749-1.711,2.225c0.385,1.476,1.519,1.22,1.711,1.134
		C85.524,57.955,86.723,55.087,85.332,54.681L85.332,54.681z"/>
	<path fill="#FFFFFF" d="M89.478,55.926c0,0-0.297-4.398,2.24-8.415c2.537-4.018,3.003-4.821,4.271-2.833s1.311,8.711-0.338,10.994
		C95.651,55.672,93.113,55.249,89.478,55.926L89.478,55.926z"/>
	<path d="M92.944,51.908c-0.929,0.067-1.396,1.058-1.396,1.819c0,0.761,0.296,2.029,0.973,2.029s1.311-1.48,1.311-2.241
		C93.832,52.754,93.536,51.866,92.944,51.908L92.944,51.908z"/>
	<path fill="#825810" d="M102.416,47.172c0,0-0.211-0.761-1.311-1.226s-1.354-1.015-2.283,0.042c-0.931,1.058-1.48,2.833-1.48,2.833
		s-0.042,3.933-0.38,5.582c0,0,0.465-0.803,0.972-2.157c0.508-1.353,1.48-3.763,2.453-4.482S101.782,47.046,102.416,47.172
		L102.416,47.172z"/>
	<path fill="#E0D0BB" d="M97.596,54.023c0,0,1.142-2.791,1.776-4.017c0.634-1.227,1.479-2.495,3.002-2.241
		c0,0,0.296,1.142,0.254,2.706s-1.016,2.199-1.016,2.199s-2.494,0.845-3.213,1.269C98.399,53.938,96.75,55.207,97.596,54.023
		L97.596,54.023z"/>
	<path fill="#825810" d="M109.739,71.486c0,0,0.24,1.15,0.527,1.102s0.335-1.15,0.335-1.15s1.727,4.361,3.69,6.565
		c1.965,2.204,4.984,4.601,6.326,5.08c0,0-0.91,1.15-1.055,2.157c-0.144,1.006-0.096,2.013,0.24,1.198
		c0.335-0.815,0.623-2.252,1.82-3.163c1.198-0.911,3.595-2.971,5.751-4.313c2.157-1.342,3.067-1.726,4.505-3.259
		c1.438-1.534,2.396-3.354,2.109-6.086c-0.288-2.732-0.001-4.265-0.863-5.367c-0.862-1.103-2.108-2.061-4.073-3.403
		s-3.786-2.923-3.307-4.745c0.479-1.821,2.492-3.642,4.601-4.984c2.109-1.342,3.978-1.246,5.367-0.862
		c1.39,0.383,3.115,1.341,3.067,2.588c-0.048,1.246-2.349,2.827-4.025,3.258c-1.678,0.432-3.738,0.959-3.45,1.438
		c0.287,0.479,1.39-0.24,1.39-0.24s0.958,1.342,2.827,1.629s4.265-0.288,7.093-2.396c2.828-2.109,6.949-5.751,8.818-7.38
		s3.163-3.834,4.937-4.744c1.772-0.911,3.45-1.007,4.601,1.389c1.149,2.396,0.432,7.237-2.396,8.914s-4.792,1.869-5.271,0.575
		s0.287-3.45,0.862-4.745c0.575-1.294,1.246-3.642,1.246-3.642s-1.342,2.061-2.108,3.499c-0.767,1.438-0.814,3.546-0.814,3.546
		s-2.109,1.629-3.26,2.348c-1.149,0.719-2.061,2.3-1.054,3.307s3.978,0.91,5.654,0.575c1.678-0.335,4.841-1.582,6.806-2.396
		c1.965-0.814,2.492-0.862,3.738-0.335c1.246,0.527,2.54,1.581,1.438,4.792s-3.067,4.84-4.648,4.169
		c-1.582-0.671-3.133-2.444-1.342-5.032c1.79-2.588,1.821-3.259,1.102-2.684c-0.719,0.575-2.156,2.492-2.444,4.745
		c0,0-0.814,0.288-1.437-0.144c-0.623-0.432-0.863-1.103-2.062-0.432c-1.197,0.671-2.539,2.828-2.875,3.451
		c-0.336,0.623,0.191,1.582,1.007,2.108c0.814,0.527,1.82,0.958,4.408,0.958s4.841-0.144,5.799,1.198
		c0.959,1.342,0.958,3.882,0.239,5.655c-0.718,1.773-2.539,4.41-4.121,3.882c-1.581-0.527-2.156-2.396-1.629-4.745
		s1.198-3.786,1.198-3.786s-0.671,0-1.246,1.103c0,0-2.014,0.048-2.732,0.048c-0.718,0-1.103,0.288-2.252,0.288
		c-1.15,0-1.629-0.288-2.636,0.383s-2.349,2.013-5.08,2.205c-2.731,0.191-4.984,0.24-5.847-0.144
		c-0.862-0.383-0.958-1.198-1.581-1.773s-0.863-0.335-0.479,0.335s0.384,1.006,0.384,1.006s-1.246,0.479-3.211,2.492
		c-1.965,2.013-2.685,3.306-3.02,4.217c-0.336,0.91-0.24,2.444-1.773,4.553c-1.533,2.108-3.163,3.93-5.463,5.176
		c0,0-0.192,0.67,1.197,1.341c0,0-1.197,0.863-2.923,0.768c0,0-0.287,1.103,0.814,1.198c0,0-0.862,1.007-2.444,0.096
		c-1.581-0.91-2.3-1.725-2.3-1.725l0.335,1.006c0,0-0.719,0-1.438-0.91c-0.719-0.911-3.067-2.828-4.601-4.505
		c-1.533-1.678-5.367-4.313-7.236-5.08C105.475,83.659,108.637,74.888,109.739,71.486L109.739,71.486z"/>
	<path d="M143.143,64.153c0,0,1.63,3.546-1.006,6.757C142.137,70.911,146.21,67.604,143.143,64.153L143.143,64.153z"/>
	<path d="M74.659,68.909c0,0-5.115,0.379-8.809,4.452c0,0,0.379-2.937,7.862-4.831C73.711,68.53,75.038,68.151,74.659,68.909
		L74.659,68.909z"/>
	<path d="M75.7,70.14c0,0,0.664,0.474,0.095,0.664c-0.568,0.189-3.505,1.42-6.346,5.209C69.449,76.013,68.502,75.35,75.7,70.14
		L75.7,70.14z"/>
</g>
</svg>
